<?xml version="1.0" standalone="no"?>
<!DOCTYPE svg PUBLIC "-//W3C//DTD SVG 20010904//EN"
 "http://www.w3.org/TR/2001/REC-SVG-20010904/DTD/svg10.dtd">
<svg version="1.0" xmlns="http://www.w3.org/2000/svg"
 width="1603.000000pt" height="1603.000000pt" viewBox="0 0 1603.000000 1603.000000"
 preserveAspectRatio="xMidYMid meet">
<metadata>
Created by potrace 1.14, written by Peter Selinger 2001-2017
</metadata>
<g transform="translate(0.000000,1603.000000) scale(0.100000,-0.100000)"
fill="#000000" stroke="none">
<path d="M7490 16014 c-30 -7 -77 -22 -105 -35 -27 -12 -66 -23 -86 -24 -137
-9 -277 -113 -404 -300 -67 -100 -109 -128 -196 -126 l-59 1 28 -32 c37 -42
95 -67 143 -62 l38 5 -20 -41 c-18 -37 -31 -99 -32 -155 -1 -42 16 -113 45
-185 16 -41 30 -93 31 -115 1 -39 -19 -105 -32 -105 -3 0 -21 -13 -39 -28
l-34 -28 71 7 c123 11 177 72 180 203 1 43 8 29 31 -58 35 -138 110 -253 223
-343 34 -28 68 -72 122 -163 42 -70 60 -108 42 -86 -117 144 -256 256 -316
256 -30 0 -33 -27 -6 -49 27 -21 33 -41 11 -41 -18 0 -106 -47 -132 -71 -12
-11 -29 -44 -39 -73 l-18 -53 -74 111 c-40 61 -76 121 -79 132 -20 77 41 111
163 90 35 -6 43 -5 52 12 9 17 5 22 -32 40 -115 57 -206 41 -262 -46 -25 -39
-30 -39 -44 -4 -7 16 -53 71 -103 123 -50 52 -97 109 -105 127 -11 26 -19 33
-36 30 -19 -3 -22 -9 -22 -48 -1 -25 7 -69 17 -97 9 -29 15 -53 13 -53 -2 0
-19 9 -38 20 -41 24 -133 57 -190 66 -87 15 -258 8 -346 -15 -144 -38 -278
-118 -345 -207 l-31 -41 -85 1 c-95 1 -125 -4 -196 -35 -247 -109 -431 -382
-437 -651 -2 -72 0 -83 16 -86 11 -2 20 5 26 19 6 18 9 8 13 -42 4 -47 17 -90
44 -150 30 -67 38 -96 39 -145 0 -66 -17 -110 -47 -120 -11 -3 -18 -15 -18
-30 0 -22 3 -24 28 -18 79 19 122 71 143 169 l12 60 17 -60 c23 -84 60 -151
128 -236 71 -89 102 -146 117 -219 l11 -54 21 37 c26 43 55 136 47 148 -3 5 0
9 5 9 6 0 11 -4 11 -8 0 -9 85 -95 135 -137 42 -35 159 -91 230 -110 86 -23
254 -32 266 -14 15 23 11 29 -33 50 -43 20 -43 20 -8 13 99 -20 215 1 295 53
l40 26 -35 13 c-23 8 -28 13 -15 13 52 2 293 -117 244 -120 -29 -2 -132 3
-150 6 -17 3 -20 -1 -17 -21 2 -21 13 -29 53 -43 88 -32 239 -110 308 -161
l39 -28 -41 3 c-34 3 -41 0 -47 -18 -4 -14 -2 -23 7 -26 26 -8 160 -154 171
-186 3 -9 -12 -11 -124 -14 -21 -1 -38 -4 -37 -8 0 -5 37 -39 82 -78 151 -129
233 -219 260 -288 25 -61 25 -62 5 -76 -27 -18 -19 -55 28 -128 29 -45 34 -60
26 -78 -10 -21 -8 -26 31 -128 6 -18 21 -48 32 -67 75 -129 151 -343 177 -492
5 -27 5 -27 -23 -12 -83 43 -208 -15 -226 -106 -10 -51 -10 -51 5 -98 8 -25
28 -54 49 -71 21 -17 31 -31 24 -35 -6 -4 -11 -17 -11 -29 0 -17 -6 -22 -29
-23 -16 -1 -44 -12 -62 -25 -21 -14 -29 -17 -20 -6 14 18 8 52 -8 43 -5 -3
-40 6 -77 20 -81 30 -123 27 -153 -14 l-20 -27 9 35 c19 66 15 73 -31 67 -22
-3 -48 -12 -58 -21 -16 -14 -17 -13 -18 19 -2 80 -60 117 -176 113 -64 -2 -79
1 -129 29 -52 28 -58 29 -63 13 -4 -11 8 -31 34 -59 51 -54 109 -172 117 -239
5 -45 3 -54 -20 -79 -47 -51 -47 -120 2 -174 23 -26 36 -31 81 -34 29 -2 54
-5 55 -7 2 -2 22 -24 46 -50 42 -47 42 -48 27 -79 -24 -51 1 -107 54 -118 l34
-7 -2 -59 c-1 -33 -2 -73 -3 -88 -2 -34 15 -57 43 -57 20 0 20 0 1 -21 -12
-14 -19 -35 -18 -64 0 -52 17 -88 50 -106 25 -13 31 -33 14 -44 -5 -3 -10 -14
-10 -24 0 -13 -18 -26 -57 -44 -106 -47 -159 -65 -354 -122 -319 -93 -362
-106 -413 -126 -27 -10 -53 -19 -58 -19 -6 0 -44 -16 -86 -35 -87 -41 -131
-49 -262 -49 -119 1 -172 22 -214 86 -15 23 -16 33 -6 63 6 19 23 49 38 66 24
29 25 33 11 58 -43 76 -181 -1 -229 -127 -26 -68 -25 -102 2 -181 30 -85 85
-141 184 -188 l76 -36 -44 -23 c-106 -54 -204 -76 -352 -78 l-90 -1 -8 35
c-10 42 -12 202 -4 247 12 66 65 204 100 261 89 147 241 241 398 245 59 1 70
-2 93 -23 49 -46 63 -91 44 -149 -15 -47 -53 -78 -142 -118 -61 -28 -68 -33
-42 -33 17 -1 39 -3 50 -6 185 -40 348 43 428 216 30 65 33 185 6 248 -40 92
-108 156 -207 194 -57 23 -201 34 -259 20 -41 -9 -41 -9 -33 13 5 12 7 46 6
76 -5 115 -83 181 -296 254 -74 25 -139 50 -144 55 -6 6 -16 10 -24 10 -8 0
-50 27 -93 60 -43 33 -79 56 -79 52 0 -5 5 -34 11 -63 5 -30 10 -86 11 -125 0
-87 -21 -139 -92 -229 -50 -63 -103 -158 -115 -208 l-7 -27 -42 43 c-114 118
-297 133 -449 37 -26 -17 -50 -37 -54 -46 -6 -17 25 -56 39 -48 18 12 97 5
127 -10 65 -34 104 -145 127 -356 3 -36 8 -72 9 -80 2 -8 6 -53 9 -100 11
-148 17 -204 21 -230 2 -14 7 -45 10 -69 10 -67 52 -206 81 -264 34 -65 125
-157 187 -185 51 -24 147 -49 212 -55 22 -2 60 -13 85 -24 81 -36 172 -51 288
-48 59 2 117 6 128 9 12 2 37 7 55 10 19 3 65 14 104 25 38 11 71 19 72 17 3
-3 -268 -169 -342 -211 -265 -147 -462 -232 -640 -275 -253 -60 -485 -6 -560
132 -72 132 -65 251 17 310 43 30 115 32 155 2 33 -24 61 -77 57 -108 -1 -11
-3 -26 -3 -33 -1 -7 -21 -37 -46 -67 -49 -61 -54 -72 -27 -61 9 4 26 8 36 11
106 21 177 76 200 155 46 154 -70 337 -261 412 -93 36 -233 39 -352 7 -103
-28 -234 -94 -264 -134 -149 -195 -109 -452 112 -716 82 -98 82 -97 43 -74
-61 35 -201 193 -293 329 -72 107 -72 107 -124 208 -105 203 -157 396 -149
553 10 208 132 353 285 338 54 -5 82 -23 103 -67 37 -79 4 -197 -96 -344 -16
-24 -25 -43 -20 -43 20 0 127 41 182 71 289 154 423 549 279 820 -31 58 -116
150 -161 176 -61 34 -180 47 -284 31 -95 -14 -225 -62 -269 -98 -8 -7 -15 -9
-15 -5 0 16 182 187 318 297 42 35 82 68 87 74 6 5 42 36 82 67 167 134 337
352 425 547 127 278 121 599 -17 885 -31 65 -105 155 -127 155 -5 0 -7 4 -4 9
18 28 -193 140 -309 164 -66 14 -232 16 -280 3 -39 -10 -81 -24 -119 -41 -38
-16 -40 -16 -87 10 -112 60 -250 27 -375 -92 -47 -44 -112 -133 -127 -176 -4
-10 -38 -71 -77 -137 -68 -115 -101 -150 -137 -144 -7 1 -18 2 -24 3 -20 2
-41 76 -41 146 0 38 -2 73 -5 77 -6 11 -71 -76 -101 -136 -33 -65 -37 -180 -9
-238 45 -89 130 -141 232 -142 33 -1 72 2 87 7 27 7 27 6 18 -19 -22 -57 -32
-122 -29 -199 10 -331 1 -375 -89 -463 -45 -45 -53 -57 -48 -78 7 -25 9 -26
58 -20 113 14 276 106 376 214 117 126 182 281 184 438 l1 62 26 -10 c45 -17
74 -22 131 -21 151 3 269 128 334 355 21 74 20 83 -7 95 -20 9 -29 6 -63 -24
-80 -71 -155 -83 -206 -33 -27 27 -30 36 -24 70 10 64 25 85 81 119 62 37 125
55 167 46 98 -22 150 -226 107 -422 -24 -109 -98 -267 -166 -353 -109 -138
-158 -194 -263 -300 -150 -150 -206 -201 -285 -262 -303 -234 -544 -621 -631
-1009 -2 -10 -6 -29 -9 -41 -3 -13 -8 -43 -11 -68 -3 -25 -8 -54 -11 -65 -2
-11 -6 -91 -7 -179 -3 -166 11 -276 52 -418 47 -159 140 -316 252 -428 38 -39
66 -70 62 -71 -4 0 -22 -2 -39 -4 -41 -4 -131 -46 -160 -73 -45 -44 -79 -97
-109 -171 -30 -72 -32 -83 -30 -191 2 -102 5 -122 30 -175 15 -33 39 -73 54
-88 71 -75 200 -99 328 -62 63 18 198 81 187 88 -4 2 -35 5 -68 6 -123 4 -180
36 -179 99 0 174 299 176 571 5 265 -166 552 -203 779 -99 29 13 57 20 65 16
12 -6 53 -14 249 -47 19 -3 105 -7 191 -8 276 -6 444 43 665 191 138 93 243
183 409 350 162 163 195 190 221 180 26 -10 11 -84 -27 -130 -5 -6 -47 -61
-93 -122 -131 -172 -267 -304 -426 -414 -71 -48 -78 -51 -135 -50 -33 1 -120
1 -192 1 l-133 -1 0 -79 0 -79 -32 -10 c-183 -56 -436 -78 -515 -46 -42 18
-65 63 -62 123 3 54 -2 66 -32 74 -17 5 -24 -3 -44 -46 -92 -211 -45 -416 116
-496 34 -17 70 -31 79 -31 9 0 20 -3 23 -6 18 -18 -190 -234 -289 -301 -111
-76 -215 -118 -313 -127 -24 -2 -47 -10 -51 -16 -14 -23 -3 -45 26 -50 55 -11
308 2 389 20 22 5 56 12 75 15 64 10 214 56 296 90 115 48 206 100 301 172
l33 25 0 -88 0 -89 -56 -65 c-93 -106 -243 -247 -318 -300 -12 -8 -27 -20 -35
-27 -25 -26 -236 -160 -317 -203 l-81 -43 -100 32 c-393 124 -590 360 -513
613 71 234 175 288 430 224 122 -31 199 -22 230 27 35 56 78 137 73 137 -4 0
-28 -14 -55 -32 -28 -17 -62 -31 -78 -30 -33 1 -80 23 -100 47 -8 10 -39 34
-70 55 -157 106 -345 118 -503 32 -73 -39 -164 -142 -208 -237 -29 -60 -39
-74 -40 -55 -4 62 4 118 28 184 54 156 64 194 67 269 5 121 -34 251 -99 333
-21 26 -25 27 -50 16 -23 -11 -26 -16 -19 -40 4 -15 8 -58 7 -95 0 -60 -5 -78
-44 -155 -37 -74 -63 -105 -177 -222 -120 -121 -138 -144 -177 -225 -52 -108
-69 -194 -62 -312 9 -153 42 -252 124 -366 19 -27 33 -50 31 -52 -2 -1 -25 -5
-53 -8 -60 -7 -130 -29 -207 -67 -85 -41 -144 -27 -189 46 -20 34 -42 42 -67
26 -26 -17 17 -143 77 -221 38 -50 195 -168 281 -211 195 -98 374 -135 655
-135 214 0 342 18 465 66 60 24 164 28 200 9 56 -30 6 -53 -257 -120 -203 -52
-411 -114 -468 -140 -11 -5 -48 -21 -83 -35 -76 -31 -175 -83 -239 -125 -46
-30 -98 -93 -173 -205 -19 -27 -38 -52 -42 -54 -30 -11 -149 -345 -183 -507
-25 -122 -26 -130 -29 -319 -5 -263 12 -365 90 -542 l46 -102 -16 -78 c-9 -43
-18 -98 -22 -123 -3 -25 -7 -61 -10 -80 -6 -53 -6 -271 1 -326 21 -162 75
-311 160 -439 125 -188 355 -377 635 -522 135 -70 251 -138 301 -177 15 -12
39 -30 54 -41 39 -27 119 -101 171 -155 126 -134 207 -298 217 -439 6 -96 -25
-254 -55 -272 -17 -11 -120 -1 -166 15 -115 41 -202 147 -202 247 0 46 30 111
71 152 16 16 29 31 29 34 0 3 -31 3 -69 1 -138 -10 -219 -83 -237 -215 l-6
-51 -49 30 c-65 40 -140 118 -170 176 -18 37 -23 63 -23 117 0 82 20 127 67
155 42 26 63 25 82 -4 13 -19 14 -31 5 -67 -24 -96 -27 -87 27 -81 62 6 99 25
123 65 69 113 -57 270 -215 268 -33 0 -73 -3 -90 -6 -100 -18 -239 -74 -285
-115 -14 -12 -34 -30 -45 -39 -61 -49 -123 -160 -143 -255 -12 -59 -9 -261 6
-331 34 -158 109 -294 221 -398 112 -103 206 -158 301 -177 36 -6 74 -14 85
-16 155 -31 398 -22 580 21 197 47 387 155 520 297 l75 79 35 -56 c43 -66 129
-155 188 -192 64 -40 174 -93 195 -93 10 0 23 -5 30 -12 7 -7 12 -9 12 -5 0 3
11 2 25 -3 39 -15 111 -23 217 -24 95 -1 97 0 75 16 -12 10 -36 24 -53 33 -43
20 -101 80 -126 129 -21 41 -22 56 -18 224 1 57 -3 81 -20 114 -11 22 -20 42
-18 43 2 1 26 10 55 19 98 32 170 98 216 196 27 56 31 76 31 145 0 65 -5 91
-27 138 -48 104 -140 165 -263 171 -93 5 -119 -3 -119 -38 0 -24 6 -29 53 -45
64 -22 99 -53 112 -99 12 -45 -1 -69 -47 -88 -35 -15 -78 -13 -126 5 -56 22
-149 128 -197 226 -33 66 -138 205 -214 281 -144 144 -269 209 -617 320 -292
94 -474 200 -659 384 -93 92 -130 134 -173 195 l-28 40 26 22 c42 36 57 29
100 -44 87 -149 163 -240 243 -292 39 -25 61 -31 111 -33 82 -4 95 12 63 72
-23 45 -28 65 -12 55 5 -3 19 -33 31 -66 43 -117 142 -194 291 -225 43 -9 146
-16 272 -18 216 -4 267 -13 392 -70 66 -30 172 -100 229 -150 46 -41 44 -40
69 -21 25 19 17 44 -46 140 -141 213 -176 281 -183 360 -3 22 -7 65 -10 95
-17 182 -113 323 -272 402 l-63 31 30 30 c52 54 73 112 76 210 2 72 -3 103
-23 163 l-25 75 -38 -59 c-92 -141 -246 -230 -430 -249 -91 -10 -272 -6 -305
7 -32 12 -23 30 15 30 109 -1 148 1 170 5 14 2 39 7 55 11 240 47 473 260 556
507 38 115 41 140 43 337 1 157 3 179 21 210 59 99 165 1 165 -152 0 -56 -13
-70 -52 -56 -24 9 -31 7 -43 -8 -21 -28 -18 -37 20 -63 164 -112 311 -4 301
221 -10 200 -84 334 -222 403 -68 34 -161 40 -210 15 -39 -20 -81 -68 -96
-107 -7 -18 -16 -33 -21 -33 -4 0 -6 4 -3 9 14 23 -21 169 -67 271 -13 31 -27
72 -31 92 -6 34 -4 38 46 79 150 123 435 410 621 624 l26 30 2 -1210 c1 -665
2 -1223 4 -1240 9 -120 17 -198 25 -250 5 -33 11 -78 15 -100 3 -22 12 -67 20
-101 8 -34 16 -74 19 -88 3 -14 7 -29 10 -34 3 -5 7 -22 10 -38 18 -100 135
-405 219 -569 215 -424 561 -840 922 -1112 17 -12 53 -40 80 -61 56 -42 251
-172 259 -172 3 0 30 -16 60 -35 75 -48 308 -161 436 -212 285 -113 545 -180
910 -232 36 -5 205 -9 375 -9 321 0 413 7 630 49 61 11 121 23 134 25 152 29
450 130 651 222 796 361 1418 1006 1730 1792 49 126 105 297 117 364 2 11 10
45 18 75 12 48 21 93 40 211 3 14 7 50 11 80 3 30 8 71 11 90 7 50 12 735 13
1715 l1 840 26 -30 c69 -80 230 -251 338 -360 119 -119 152 -150 273 -254 62
-53 62 -54 56 -95 -3 -23 -9 -45 -13 -51 -36 -47 -90 -239 -84 -300 2 -26 -2
-23 -28 25 -16 30 -42 65 -57 77 -124 100 -358 -3 -425 -187 -48 -133 -56
-279 -20 -360 22 -51 83 -109 116 -112 76 -5 139 15 188 60 19 19 19 19 -1 42
-17 20 -24 22 -44 12 -18 -8 -28 -7 -41 2 -15 11 -17 24 -13 77 7 77 30 128
69 155 51 34 91 10 108 -64 6 -26 10 -112 9 -192 -2 -154 1 -177 30 -280 87
-298 345 -521 644 -556 34 -4 77 -7 93 -6 17 1 40 3 53 3 13 1 28 -3 34 -9 38
-38 -222 -50 -396 -18 -46 9 -143 48 -194 78 -61 38 -123 101 -169 172 l-31
49 -25 -79 c-20 -64 -24 -95 -22 -164 4 -97 20 -144 70 -199 l34 -38 -64 -33
c-83 -43 -161 -113 -202 -182 -38 -61 -73 -189 -73 -260 0 -27 -5 -70 -12 -96
-11 -45 -66 -160 -93 -192 -25 -31 -145 -227 -145 -237 0 -18 37 -44 54 -37 9
3 16 9 16 13 0 15 142 113 217 150 150 75 185 83 430 87 209 4 299 17 385 58
88 42 126 87 178 210 11 27 23 46 27 42 4 -4 -4 -27 -17 -52 -35 -64 -23 -80
61 -76 50 2 72 8 111 33 71 46 155 143 223 258 64 109 76 116 120 78 l27 -22
-47 -65 c-26 -36 -96 -113 -155 -171 -196 -193 -405 -310 -725 -405 -259 -76
-446 -181 -580 -326 -58 -63 -195 -253 -195 -271 0 -19 -75 -120 -118 -159
-74 -66 -157 -82 -219 -42 -34 21 -34 71 0 118 21 30 88 65 125 66 18 0 22 6
22 30 0 36 -8 40 -86 44 -186 9 -322 -112 -328 -293 -6 -163 101 -313 254
-358 l56 -17 -24 -43 c-20 -36 -23 -55 -21 -116 5 -154 2 -181 -20 -224 -28
-56 -63 -91 -138 -136 -35 -21 -63 -39 -63 -40 0 -5 200 1 240 7 213 30 438
168 528 326 14 25 27 46 28 48 1 2 44 -39 96 -90 138 -140 303 -232 506 -283
149 -38 361 -50 510 -30 51 7 111 16 127 20 6 1 28 5 50 10 67 13 151 63 261
157 91 78 168 195 208 317 35 108 40 139 40 291 0 116 -3 144 -22 199 -54 149
-171 259 -338 313 -220 73 -355 43 -424 -91 -52 -104 8 -198 132 -204 43 -3
44 2 24 59 -21 60 -5 114 33 114 31 0 79 -39 99 -82 42 -86 15 -205 -65 -295
-33 -36 -152 -127 -159 -121 -1 2 -5 26 -8 53 -10 71 -39 125 -87 162 -44 34
-124 56 -183 51 l-35 -3 36 -40 c79 -89 85 -178 16 -277 -32 -47 -114 -103
-178 -121 -61 -17 -144 -15 -155 4 -20 32 -43 159 -42 230 4 307 293 627 777
861 50 23 134 75 189 113 54 39 108 77 121 85 30 20 64 52 152 139 158 158
250 331 287 536 14 79 17 113 18 215 1 144 -8 233 -37 380 -3 14 -8 39 -11 55
-4 23 5 53 36 119 23 49 53 132 67 185 22 84 26 120 28 291 3 215 -16 383 -55
500 -5 14 -16 52 -26 85 -18 63 -63 182 -95 252 -10 23 -19 47 -19 52 0 6 -6
11 -13 11 -7 0 -39 40 -71 90 -33 49 -76 106 -96 127 -68 71 -312 189 -520
252 -58 18 -116 36 -130 41 -14 6 -52 16 -85 24 -33 8 -105 26 -160 40 -55 13
-117 28 -137 31 -21 4 -50 18 -65 32 -26 25 -26 26 -8 39 35 26 132 22 210 -6
120 -45 228 -61 430 -65 125 -2 217 1 270 10 264 43 401 98 583 233 109 81
166 161 193 267 10 39 9 49 -2 56 -27 17 -47 9 -73 -31 -43 -65 -114 -81 -180
-42 -51 30 -145 61 -206 68 -30 3 -56 7 -57 8 -1 1 12 23 30 48 38 53 96 174
103 215 3 15 10 46 15 67 25 94 7 266 -39 371 -39 91 -71 132 -199 262 -157
159 -213 254 -218 373 -2 46 10 110 20 110 1 0 36 -16 78 -35 149 -69 259 -77
362 -25 111 55 156 154 152 333 -2 101 -6 119 -35 187 -53 125 -158 213 -264
224 -24 3 -43 5 -43 5 0 1 38 41 85 89 132 138 215 292 265 492 32 127 37 172
39 325 4 218 -39 459 -114 640 -7 17 -16 39 -20 50 -35 92 -177 339 -223 387
-7 7 -24 30 -40 50 -39 53 -177 188 -244 239 -31 24 -65 51 -73 59 -9 8 -70
65 -135 125 -106 99 -224 217 -300 300 -101 112 -209 301 -235 414 -59 252 71
511 224 447 73 -30 114 -98 111 -185 -1 -34 -7 -49 -29 -67 -15 -13 -39 -24
-54 -24 -40 1 -109 35 -146 74 -30 30 -36 33 -57 22 -32 -16 -30 -46 10 -159
44 -127 122 -226 209 -268 56 -27 155 -30 218 -7 l41 15 6 -91 c11 -163 77
-304 199 -426 102 -101 248 -181 357 -196 47 -6 49 -5 58 22 9 26 6 31 -31 59
-82 62 -115 161 -109 325 9 232 6 279 -21 344 l-16 38 33 -9 c17 -4 59 -8 92
-7 177 3 289 172 229 347 -13 40 -112 191 -115 177 -1 -3 -2 -41 -4 -86 -2
-78 -23 -142 -45 -145 -6 -1 -16 -2 -22 -3 -44 -7 -105 76 -229 313 -40 77
-135 178 -203 216 -59 35 -143 55 -198 48 -41 -4 -111 -34 -122 -52 -3 -4 -28
2 -55 15 -121 58 -349 71 -461 27 -8 -4 -17 -7 -20 -8 -114 -31 -257 -150
-341 -285 -30 -48 -93 -235 -105 -310 -2 -14 -6 -40 -10 -58 -13 -78 -6 -213
18 -332 49 -252 248 -555 498 -761 243 -199 283 -234 405 -351 l90 -87 -80 38
c-113 54 -193 73 -305 74 -136 1 -187 -18 -270 -102 -97 -99 -140 -198 -146
-336 -9 -236 127 -476 336 -593 55 -31 178 -77 185 -70 2 2 -16 34 -40 72
-133 206 -119 361 33 380 113 15 226 -89 266 -243 14 -53 14 -204 1 -266 -61
-293 -230 -598 -470 -847 -87 -90 -126 -110 -54 -27 155 178 223 330 222 494
0 81 -4 98 -32 158 -44 91 -73 123 -150 161 -269 136 -523 116 -689 -52 -79
-81 -119 -198 -97 -286 22 -85 75 -134 174 -162 31 -9 65 -18 76 -21 14 -4 8
7 -23 44 -23 28 -46 62 -52 77 -25 67 0 126 67 160 42 21 68 20 119 -5 90 -43
107 -161 45 -296 -26 -54 -39 -68 -92 -103 -54 -35 -88 -49 -159 -67 -8 -2
-50 -5 -93 -7 -179 -7 -405 61 -699 209 -175 89 -515 292 -505 302 6 6 120
-26 126 -35 9 -14 163 -35 251 -35 101 0 229 25 265 53 18 14 79 30 133 35
158 16 287 106 361 252 19 38 57 163 66 216 13 74 25 185 30 272 4 55 9 111
11 125 2 14 7 52 9 85 10 109 35 236 56 286 25 56 78 108 114 110 14 1 31 2
38 3 6 1 26 -1 42 -4 25 -5 32 -2 43 19 12 23 11 28 -10 44 -36 30 -134 76
-175 84 -116 20 -223 -10 -306 -86 -24 -23 -47 -41 -50 -41 -3 0 -8 14 -12 31
-9 41 -62 134 -114 199 -24 30 -51 71 -62 93 -27 52 -33 154 -16 250 13 73 13
77 -3 65 -10 -7 -42 -31 -71 -54 -67 -50 -123 -76 -268 -125 -134 -45 -187
-75 -234 -129 -49 -58 -62 -117 -42 -192 l7 -26 -44 10 c-41 9 -170 6 -214 -5
-53 -14 -133 -58 -172 -97 -100 -96 -125 -243 -64 -371 48 -100 130 -173 233
-205 35 -11 149 -11 194 0 11 2 31 5 45 6 21 1 18 4 -20 21 -25 12 -59 28 -76
36 -79 36 -116 120 -84 191 31 69 79 87 187 70 111 -16 241 -98 320 -201 30
-39 84 -159 107 -237 20 -71 24 -102 21 -190 -1 -58 -6 -118 -10 -133 l-8 -29
-94 6 c-124 9 -218 29 -298 65 -58 27 -84 51 -53 51 6 0 36 12 67 27 141 69
222 229 179 354 -44 130 -193 216 -237 138 -14 -24 -12 -28 18 -66 17 -22 34
-55 37 -74 5 -30 1 -39 -26 -66 -18 -18 -48 -39 -67 -48 -82 -39 -265 -27
-386 26 -79 35 -187 74 -257 94 -359 102 -598 178 -672 216 -24 12 -38 26 -38
38 0 11 -7 26 -15 35 -21 20 -20 23 20 60 34 33 41 55 36 116 -1 14 -9 31 -16
39 -13 13 -10 19 18 42 30 25 32 31 33 95 1 38 2 72 3 77 1 4 11 7 24 7 57 0
89 58 62 112 -17 35 -18 32 53 107 28 30 39 35 70 32 109 -7 173 139 93 215
-33 31 -33 53 1 149 25 72 58 127 106 177 27 28 33 41 25 49 -8 8 -26 4 -69
-17 -48 -23 -68 -27 -128 -26 -113 4 -174 -37 -172 -115 1 -29 0 -30 -21 -16
-13 8 -39 19 -59 23 l-36 8 4 -49 c5 -49 5 -49 -13 -30 -31 33 -76 35 -147 6
-35 -14 -67 -23 -71 -20 -5 2 -14 -2 -21 -10 -10 -12 -10 -19 3 -33 8 -9 20
-43 27 -74 9 -45 19 -64 47 -88 32 -29 39 -31 82 -24 82 13 115 11 119 -8 3
-15 -3 -18 -35 -16 -21 0 -47 -2 -58 -6 -26 -8 -54 -47 -61 -84 -6 -28 -5 -28
46 -31 38 -1 60 4 86 20 43 26 64 14 34 -19 -40 -43 -80 -57 -165 -56 -167 1
-258 59 -310 197 -33 88 -21 176 24 177 42 1 67 56 47 102 -5 11 -2 18 11 22
26 9 61 65 68 112 7 43 -11 102 -43 137 -22 24 -77 47 -113 47 -37 0 -37 8 1
140 41 146 78 233 191 452 15 30 22 95 11 102 -7 4 3 29 27 66 52 80 59 109
30 132 l-22 18 34 68 c34 70 98 140 257 281 46 40 81 75 79 77 -1 2 -40 5 -85
6 -45 2 -82 4 -82 6 0 11 97 127 137 163 62 56 62 83 0 75 l-42 -6 25 20 c54
42 180 110 278 151 75 32 102 48 102 61 0 20 -5 20 -112 18 -38 -1 -68 1 -68
4 0 18 209 117 244 115 16 0 13 -4 -11 -12 l-33 -12 43 -27 c74 -46 118 -60
197 -60 41 -1 86 2 100 6 18 5 15 1 -10 -13 -22 -12 -35 -27 -36 -41 -1 -20 3
-21 83 -19 206 4 372 76 502 215 34 36 61 59 62 52 2 -33 11 -66 36 -120 28
-63 37 -62 49 5 9 54 47 125 108 199 71 87 95 127 127 222 16 44 29 74 30 66
6 -110 60 -189 147 -215 37 -11 40 22 4 55 -17 15 -34 40 -38 55 -10 40 4 132
27 178 18 37 54 129 58 150 0 4 2 24 2 45 1 20 3 29 6 20 5 -19 12 -21 36 -13
27 11 12 162 -29 284 -38 115 -96 205 -193 301 -136 135 -282 199 -422 186
-62 -5 -68 -4 -82 17 -67 103 -227 199 -393 237 -60 13 -227 18 -299 7 -59 -8
-143 -35 -204 -67 -40 -20 -43 -20 -36 -3 21 51 29 106 26 166 -2 30 -39 20
-56 -16 -8 -18 -55 -73 -104 -123 -48 -50 -94 -106 -102 -123 -17 -38 -24 -39
-43 -3 -34 65 -99 94 -179 80 -52 -10 -127 -43 -127 -56 1 -23 19 -34 48 -27
49 10 110 8 142 -5 59 -24 50 -73 -33 -195 -22 -33 -51 -78 -63 -99 l-22 -39
-11 38 c-18 67 -51 103 -129 142 -69 35 -73 35 -86 18 -16 -22 -14 -25 57 -75
26 -18 50 -43 53 -55 3 -11 -7 -47 -22 -80 -14 -33 -41 -108 -58 -167 l-32
-107 -43 94 c-24 52 -49 95 -55 95 -22 0 -36 -22 -26 -41 27 -49 33 -272 10
-349 l-13 -45 -8 49 c-10 65 -15 75 -35 72 -12 -2 -19 -14 -21 -37 -5 -46 -50
-188 -71 -221 -9 -14 -38 -61 -64 -103 -26 -44 -63 -89 -86 -106 l-40 -29 14
41 c22 63 69 151 109 203 20 27 34 50 31 53 -3 3 -31 -4 -63 -15 -31 -12 -58
-20 -59 -19 -1 1 13 32 30 69 17 36 37 81 45 100 27 64 83 139 132 176 l50 37
-50 3 c-29 2 -65 -3 -86 -13 -21 -8 -38 -15 -39 -15 -2 0 10 26 25 58 15 31
32 81 38 111 21 100 154 288 253 357 21 14 26 25 22 41 -5 18 -10 20 -36 12
-81 -23 -197 -123 -306 -263 -36 -46 -26 -25 33 70 30 49 64 105 74 124 11 19
36 46 56 59 113 75 218 249 240 395 6 41 15 61 15 35 3 -81 38 -171 80 -201
24 -17 134 -38 158 -30 7 2 -5 17 -27 33 -22 15 -45 37 -50 48 -17 31 -13 96
10 159 67 187 71 281 16 389 l-17 31 35 -9 c43 -12 105 13 148 58 l28 31 -65
4 c-80 5 -103 20 -171 113 -138 191 -278 295 -416 309 -24 2 -66 14 -94 26
-161 70 -376 63 -549 -18 l-66 -31 -48 24 c-135 67 -309 91 -442 59z m-166
-1704 c21 -39 44 -99 52 -133 8 -34 26 -83 40 -109 23 -44 22 -62 -2 -38 -6 6
-41 13 -78 17 l-68 6 7 51 c12 85 11 100 -6 104 -11 2 -29 -25 -61 -94 -45
-96 -46 -96 -53 -63 -12 53 -65 209 -86 253 -30 63 -26 80 35 125 65 49 71 57
56 79 -7 9 19 -15 56 -55 38 -39 86 -103 108 -143z m10 -321 c49 -44 66 -69
115 -173 70 -146 75 -159 59 -153 -7 3 -37 14 -66 23 -58 20 -61 25 -83 150
-9 55 -13 61 -33 57 -12 -3 -22 -12 -23 -21 -4 -92 -15 -110 -28 -47 -12 54
-18 215 -8 215 5 0 35 -23 67 -51z m140 -411 c20 -32 35 -58 32 -58 -5 0 -60
80 -77 112 -19 38 7 7 45 -54z m-835 -178 c0 -9 -6 -4 -14 10 -19 33 -19 49 0
24 8 -10 14 -26 14 -34z m2782 -1 c-9 -22 -10 -22 -10 -3 -1 11 2 24 6 27 12
12 14 0 4 -24z m113 -64 c2 -17 5 -36 5 -42 1 -7 10 -13 20 -13 15 0 21 -10
26 -40 4 -22 17 -54 29 -72 12 -18 25 -39 30 -46 6 -11 -88 39 -106 57 -4 3
-10 49 -14 101 -6 90 -1 120 10 55z m-3010 -57 c-6 -98 -7 -101 -63 -132 -63
-34 -67 -33 -37 7 13 17 30 53 36 79 8 31 18 48 31 51 12 3 19 14 19 29 0 21
7 38 16 38 2 0 1 -33 -2 -72z m85 -2559 c-19 -12 -24 -2 -8 17 9 11 14 13 17
4 3 -7 -2 -16 -9 -21z m2791 6 c0 -15 -21 -12 -30 5 -11 20 -10 21 9 10 12 -6
21 -13 21 -15z m-81 -65 c25 0 27 -12 6 -30 -13 -11 -19 -9 -36 11 -12 13 -28
38 -36 54 l-16 30 31 -32 c16 -18 39 -33 51 -33z m-2606 2 c-33 -40 -56 -47
-61 -19 -2 11 3 17 16 17 10 0 29 11 42 25 35 38 38 20 3 -23z m247 -319 c8
-12 11 -26 6 -30 -4 -4 -40 -9 -79 -10 -55 -1 -82 4 -115 19 -42 20 -81 62
-69 75 6 6 14 3 57 -22 28 -16 116 -20 125 -5 10 16 -22 78 -50 96 -17 11 -43
17 -70 15 -39 -2 -43 0 -38 19 6 23 39 26 106 9 35 -10 48 -9 72 4 l30 15 6
-81 c3 -45 12 -92 19 -104z m3414 -2251 c17 -15 56 -54 86 -87 100 -109 283
-274 404 -365 168 -125 235 -159 406 -205 l85 -23 -221 -1 c-185 -1 -224 1
-234 14 -7 8 -17 15 -22 15 -27 0 -233 172 -322 269 -23 25 -49 53 -59 64 -32
32 -207 270 -208 281 0 6 -2 19 -4 30 -10 53 33 57 89 8z m2980 -440 c113 -50
113 -171 0 -201 -46 -12 -170 -16 -200 -6 -17 5 -27 -3 -56 -47 -60 -91 -86
-191 -81 -309 3 -74 14 -117 67 -266 24 -66 39 -184 24 -198 -3 -3 -13 16 -23
42 -72 191 -254 323 -445 323 -109 0 -249 -54 -328 -128 -79 -72 -127 -81
-199 -34 -26 17 -49 29 -51 27 -10 -9 65 -129 95 -152 29 -23 44 -27 92 -25
31 1 87 10 125 20 91 25 202 28 253 7 76 -32 131 -112 167 -244 67 -244 -139
-485 -514 -601 l-100 -32 -57 28 c-32 16 -59 32 -61 36 -2 4 -8 8 -13 8 -16 0
-162 94 -261 168 -139 104 -283 237 -375 349 -40 48 -43 55 -43 112 l0 62 55
-35 c138 -89 337 -168 508 -202 129 -25 259 -38 372 -37 133 2 125 0 125 33 0
17 -5 30 -12 30 -199 6 -409 134 -610 372 l-48 56 53 17 c154 50 231 166 221
335 -3 65 -12 100 -45 186 -19 48 -22 51 -47 45 -25 -7 -27 -11 -29 -69 -2
-113 -41 -140 -194 -140 -87 0 -144 7 -296 39 l-53 10 0 88 0 88 143 -2 c78
-2 183 1 232 7 91 9 284 44 294 53 2 3 14 -1 26 -9 32 -21 113 -47 186 -60
177 -31 395 16 576 126 130 79 249 129 337 142 22 4 41 8 42 9 10 10 110 -5
148 -21z m-9840 -3278 c6 -123 20 -211 58 -359 28 -113 28 -113 16 -141 -13
-29 -57 -34 -59 -6 -1 9 -3 26 -4 37 -1 11 -5 49 -9 85 -8 72 -32 133 -66 169
-29 30 -109 67 -177 82 -29 7 -53 16 -53 20 0 4 18 22 40 39 55 44 243 170
247 167 1 -2 5 -44 7 -93z m9096 33 c41 -28 103 -71 137 -97 l63 -48 -28 -10
c-15 -5 -52 -17 -82 -26 -70 -20 -132 -60 -156 -100 -10 -17 -18 -33 -17 -36
0 -3 -4 -16 -9 -29 -5 -13 -11 -47 -14 -75 -3 -28 -7 -64 -9 -81 -1 -16 -3
-36 -4 -42 0 -7 -12 -13 -25 -13 -42 0 -48 43 -20 152 41 159 61 295 63 421 1
36 4 46 14 41 6 -4 46 -30 87 -57z m-9638 -425 c27 -35 104 -87 215 -143 120
-61 160 -180 102 -303 -85 -182 -345 -187 -549 -9 -14 12 -36 30 -50 42 l-25
20 34 63 c70 131 227 348 251 348 5 0 15 -8 22 -18z m10158 -40 c64 -81 182
-260 205 -311 l19 -44 -34 -29 c-205 -174 -386 -210 -526 -103 -80 61 -111
197 -65 285 29 56 41 67 113 102 65 31 154 89 202 132 16 14 32 26 35 25 3 0
26 -26 51 -57z"/>
</g>
</svg>
